<?xml version="1.0" encoding="UTF-8" standalone="no" ?>
<!DOCTYPE svg PUBLIC "-//W3C//DTD SVG 1.1//EN" "http://www.w3.org/Graphics/SVG/1.1/DTD/svg11.dtd">
<svg xmlns="http://www.w3.org/2000/svg" xmlns:xlink="http://www.w3.org/1999/xlink" version="1.1" width="2500" height="2500" viewBox="0 0 1080 1080" xml:space="preserve">
<desc>Created with Fabric.js 5.2.4</desc>
<defs>
</defs>
<g transform="matrix(1 0 0 1 540 540)" id="0636e368-0ea8-46a9-97d1-5d2cdd790889"  >
</g>
<g transform="matrix(1 0 0 1 540 540)" id="3ca70388-4a60-42b5-9c48-1e85571935d1"  >
<rect style="stroke: none; stroke-width: 1; stroke-dasharray: none; stroke-linecap: butt; stroke-dashoffset: 0; stroke-linejoin: miter; stroke-miterlimit: 4; fill: rgb(255,255,255); fill-rule: nonzero; opacity: 1; visibility: hidden;" vector-effect="non-scaling-stroke"  x="-540" y="-540" rx="0" ry="0" width="1080" height="1080" />
</g>
<g transform="matrix(1 0 0 1 518.93 601.29)"  >
<path style="stroke: rgb(0,0,0); stroke-width: 0; stroke-dasharray: none; stroke-linecap: butt; stroke-dashoffset: 0; stroke-linejoin: miter; stroke-miterlimit: 4; fill: rgb(0,0,0); fill-rule: nonzero; opacity: 1;" vector-effect="non-scaling-stroke"  transform=" translate(-256, -256)" d="M 286.8828125 449.3017273 C 254.809433 443.70428469999996 242.6347809 387.58023069999996 229.19944759999998 308.04479979999996 C 193.70610039999997 313.6159363 144.9750824 323.66503909999994 92.55348199999997 334.96258539999997 C 84.00565329999998 357.3548889 69.39269249999998 390.0804748 48.714580499999975 433.1517639 C 37.151031499999974 458.0167847 -0.48270040000002723 447.9319153 0.004684399999973721 421.614563 C 0.004684399999973721 413.41134639999996 12.907023399999973 382.22277829999996 38.71614449999997 328.04168699999997 C 27.753030699999968 308.3807983 37.55656429999997 290.61190789999995 59.48241039999997 285.99624629999994 C 103.9974365 206.3020935 184.71138 67.0551453 208.9461212 62.6982765 C 243.21795649999999 62.7183838 236.6581421 108.8511276 252.78503419999998 177.0392036 L 290.9844361 355.2159462 C 307.009491 401.9082336 332.4205933 440.9456177 286.8828125 449.3017273 z M 196.3839417 156.272934 L 123.0617447 274.4590149 C 143.73985290000002 269.1641541 175.10475160000001 262.7543945 217.15020750000002 255.2315064 L 196.3839417 156.272934 z M 420.9829712 116.5408401 C 419.7759094 133.4156188 418.6054993 153.2079162 419.4459839 173.9677886 C 466.89489749999996 175.95257560000002 511.17642209999997 165.2217711 511.9947815 197.5533446 C 512.2630614999999 209.7749785 502.1607666 221.6584471 489.9479981 221.1389006 C 467.7392579 217.6538237 444.2074891 220.4381255 419.9588929 219.600128 L 419.9588929 279.8472593 C 422.07778940000003 311.68124370000004 371.6411134 310.7331846 374.32476810000003 279.8472593 L 373.8118592 220.62599160000002 C 321.1744385 224.260803 289.815033 224.08613560000003 290.23562630000004 198.83566260000003 C 291.50314340000006 168.86184670000003 309.90682990000005 180.31724520000003 373.8118592 174.99183630000005 C 373.07315070000004 151.36448640000003 373.06268320000004 129.20207190000005 375.86352550000004 112.69480870000004 C 381.8634949 83.9937057 420.8475342 91.3286819 420.9829712 116.5408401 z" stroke-linecap="round" />
</g>
<g transform="matrix(4.17 0 0 4.52 664.41 560.98)" id="f8d0b9f9-5faf-4d25-85ed-9bbd3b26f545"  >
<polygon style="stroke: rgb(0,0,0); stroke-width: 0; stroke-dasharray: none; stroke-linecap: butt; stroke-dashoffset: 0; stroke-linejoin: miter; stroke-miterlimit: 4; fill: rgb(198,203,36); fill-rule: nonzero; opacity: 1;" vector-effect="non-scaling-stroke"  points="0,-35.47 11.56,-12.17 37.29,-8.4 18.68,9.8 23.06,35.47 0,23.42 -23.06,35.47 -18.74,9.8 -37.29,-8.4 -11.56,-12.17 " />
</g>
</svg>